<?xml version="1.0" standalone="no"?>
<!DOCTYPE svg PUBLIC "-//W3C//DTD SVG 20010904//EN"
 "http://www.w3.org/TR/2001/REC-SVG-20010904/DTD/svg10.dtd">
<svg version="1.0" xmlns="http://www.w3.org/2000/svg"
 width="700.000000pt" height="700.000000pt" viewBox="0 0 700.000000 700.000000"
 preserveAspectRatio="xMidYMid meet">
<metadata>
Created by potrace 1.14, written by Peter Selinger 2001-2017
</metadata>
<g transform="translate(0.000000,700.000000) scale(0.100000,-0.100000)"
fill="#000000" stroke="none">
<path d="M3278 6995 c-1 -1 -42 -5 -89 -9 -47 -4 -95 -8 -105 -10 -10 -2 -41
-7 -69 -10 -428 -56 -875 -210 -1270 -439 -103 -60 -265 -165 -315 -204 -8 -6
-51 -40 -95 -74 -351 -273 -674 -652 -897 -1054 -49 -87 -148 -289 -148 -301
0 -2 -9 -23 -20 -47 -57 -123 -157 -435 -186 -582 -2 -11 -10 -54 -19 -95 -22
-115 -30 -160 -41 -255 -26 -230 -26 -667 1 -826 2 -13 6 -46 9 -74 9 -78 22
-152 51 -285 21 -96 91 -339 114 -395 5 -11 25 -65 46 -120 64 -170 213 -461
314 -615 491 -745 1217 -1268 2061 -1486 146 -38 269 -63 389 -80 25 -3 57 -8
71 -10 163 -25 682 -25 842 1 13 2 46 7 73 10 72 10 86 12 120 19 17 3 44 8
60 11 343 65 740 212 1039 384 49 28 90 51 92 51 10 0 260 174 346 240 156
122 330 285 458 429 36 41 70 79 76 85 6 6 48 61 94 121 152 200 276 403 388
638 29 59 52 110 52 113 0 3 8 24 19 47 53 118 147 417 177 562 17 81 54 301
59 350 4 33 9 71 11 85 9 47 11 525 3 605 -15 165 -21 220 -24 225 -2 3 -6 30
-10 60 -9 75 -69 337 -99 435 -189 622 -520 1150 -997 1590 -347 320 -788 580
-1244 733 -168 57 -420 119 -555 137 -19 3 -46 7 -60 10 -13 2 -52 7 -86 11
-33 3 -74 8 -90 10 -32 5 -540 14 -546 9z m2723 -2289 c4 -34 -7 -201 -16
-240 -3 -11 -7 -32 -9 -46 -21 -130 -80 -302 -147 -429 -204 -390 -545 -621
-919 -624 -114 0 -134 1 -220 22 -246 57 -476 224 -637 461 -70 102 -138 241
-177 362 -18 55 -38 103 -44 106 -5 4 -158 7 -338 6 -272 -1 -329 -3 -336 -15
-4 -8 -21 -56 -39 -108 -148 -444 -480 -757 -879 -828 -19 -3 -87 -6 -150 -6
-484 2 -916 402 -1049 973 -27 117 -29 127 -37 233 -4 50 -8 101 -9 112 0 11
0 23 2 26 1 4 1128 6 2503 6 1821 0 2500 -3 2501 -11z m-4001 -1979 c47 -23
76 -46 105 -83 22 -28 62 -80 90 -115 218 -278 552 -490 914 -578 141 -35 232
-45 396 -45 184 0 287 14 462 64 347 100 662 319 882 613 100 134 170 178 291
179 80 0 134 -21 202 -81 53 -47 77 -93 93 -176 20 -105 -7 -176 -131 -335
-243 -313 -587 -571 -960 -718 -88 -35 -204 -74 -219 -73 -2 0 -23 -6 -45 -14
-38 -14 -199 -46 -300 -60 -76 -11 -441 -14 -515 -4 -89 11 -134 18 -165 24
-42 9 -74 15 -105 21 -66 11 -239 67 -347 110 -397 159 -727 414 -992 765 -94
125 -117 223 -80 337 40 125 179 215 313 205 25 -2 75 -18 111 -36z"/>
</g>
</svg>
