<?xml version="1.0" encoding="iso-8859-1"?>
<!-- Generator: Adobe Illustrator 19.0.0, SVG Export Plug-In . SVG Version: 6.00 Build 0)  -->
<svg version="1.1" id="Capa_1" xmlns="http://www.w3.org/2000/svg" xmlns:xlink="http://www.w3.org/1999/xlink" x="0px" y="0px"
	 viewBox="0 0 489.901 489.901" style="enable-background:new 0 0 489.901 489.901;" xml:space="preserve">
<g>
	<g>
		<path d="M469.2,0.5H20.8C9.4,0.5,0,9.9,0,21.3v447.3c0,11.4,9.4,20.8,20.8,20.8h447.3c11.4,0,20.8-9.4,21.8-19.8V21.3
			C490,9.9,480.6,0.5,469.2,0.5z M448.4,448.9H40.6V41.1h407.8V448.9z"/>
		<path d="M229.9,199.2h86.3L297.5,218c-8.3,8.3-8.3,20.8,0,29.1c4.2,4.2,17.7,11.5,29.1,0l54.1-54.1c8.3-8.3,9.8-19.4,0-29.1
			l-54.1-54.1c-8.3-8.3-20.8-8.3-29.1,0c-8.3,8.3-8.3,20.8,0,29.1l18.7,18.7h-86.3c-11.4,0-20.8,9.4-20.8,20.8
			C209.1,189.9,218.5,199.2,229.9,199.2z"/>
		<path d="M162.3,379.2c8.3,8.3,20.8,8.3,29.1,0s8.3-20.8,0-29.1l-18.7-18.7H259c11.4,0,20.8-9.4,20.8-20.8s-9.4-20.8-20.8-20.8
			h-86.3l18.7-18.7c8.3-8.3,8.3-20.8,0-29.1c-4.2-4.2-17.7-11.5-29.1,0l-54.1,54c-10.1,10.1-8.9,20.2,0,29.1L162.3,379.2z"/>
	</g>
</g>
<g>
</g>
<g>
</g>
<g>
</g>
<g>
</g>
<g>
</g>
<g>
</g>
<g>
</g>
<g>
</g>
<g>
</g>
<g>
</g>
<g>
</g>
<g>
</g>
<g>
</g>
<g>
</g>
<g>
</g>
</svg>
